3D InterOp IGES (v. 2017 1.0.2), Spatial Corp. Copyright (c) 1999-2016. S      1
1H,,1H;,6HNoname,8HFEA1.igs,13HSpatial Corp.,20H3D InterOp ACIS/IGES,32,G      1
38, 6,308,15,6HNoname,1.000,2,2HMM,1,1.000,15H20180220.174237,1.0e-006, G      2
0.00,6HNoname,6HNoname,11,0,15H20180220.174237;                         G      3
     314       1       0       0       0       0       0       000010001D      1
     314       0       0       2       0       0       0               0D      2
     116       3       0       0       0       0       0       000010001D      3
     116       0       0       1       0       0       0               0D      4
     123       4       0       0       0       0       0       000010201D      5
     123       0       0       1       0       0       0               0D      6
     123       5       0       0       0       0       0       000010201D      7
     123       0       0       1       0       0       0               0D      8
     192       6       0       0       0       0       0       000010001D      9
     192       0      -1       1       1       0       0               0D     10
     110       7       0       0       0       0       0       000010001D     11
     110       0       0       2       0       0       0               0D     12
     502       9       0       0       0       0       0       000010001D     13
     502       0       0      16       1       0       0               0D     14
     110      25       0       0       0       0       0       000010001D     15
     110       0       0       2       0       0       0               0D     16
     124      27       0       0       0       0       0       000010001D     17
     124       0       0       1       0       0       0               0D     18
     100      28       0       0       0       0      17       000010001D     19
     100       0       0       1       0       0       0               0D     20
     110      29       0       0       0       0       0       000010001D     21
     110       0       0       2       0       0       0               0D     22
     124      31       0       0       0       0       0       000010001D     23
     124       0       0       1       0       0       0               0D     24
     100      32       0       0       0       0      23       000010001D     25
     100       0       0       1       0       0       0               0D     26
     110      33       0       0       0       0       0       000010001D     27
     110       0       0       2       0       0       0               0D     28
     110      35       0       0       0       0       0       000010001D     29
     110       0       0       2       0       0       0               0D     30
     124      37       0       0       0       0       0       000010001D     31
     124       0       0       1       0       0       0               0D     32
     100      38       0       0       0       0      31       000010001D     33
     100       0       0       1       0       0       0               0D     34
     124      39       0       0       0       0       0       000010001D     35
     124       0       0       1       0       0       0               0D     36
     100      40       0       0       0       0      35       000010001D     37
     100       0       0       1       0       0       0               0D     38
     126      41       0       0       0       0       0       000010001D     39
     126       0       0       9       0       0       0               0D     40
     110      50       0       0       0       0       0       000010001D     41
     110       0       0       2       0       0       0               0D     42
     110      52       0       0       0       0       0       000010001D     43
     110       0       0       2       0       0       0               0D     44
     124      54       0       0       0       0       0       000010001D     45
     124       0       0       1       0       0       0               0D     46
     100      55       0       0       0       0      45       000010001D     47
     100       0       0       1       0       0       0               0D     48
     110      56       0       0       0       0       0       000010001D     49
     110       0       0       2       0       0       0               0D     50
     110      58       0       0       0       0       0       000010001D     51
     110       0       0       1       0       0       0               0D     52
     110      59       0       0       0       0       0       000010001D     53
     110       0       0       1       0       0       0               0D     54
     124      60       0       0       0       0       0       000010001D     55
     124       0       0       1       0       0       0               0D     56
     100      61       0       0       0       0      55       000010001D     57
     100       0       0       1       0       0       0               0D     58
     110      62       0       0       0       0       0       000010001D     59
     110       0       0       2       0       0       0               0D     60
     110      64       0       0       0       0       0       000010001D     61
     110       0       0       2       0       0       0               0D     62
     110      66       0       0       0       0       0       000010001D     63
     110       0       0       2       0       0       0               0D     64
     110      68       0       0       0       0       0       000010001D     65
     110       0       0       2       0       0       0               0D     66
     124      70       0       0       0       0       0       000010001D     67
     124       0       0       1       0       0       0               0D     68
     100      71       0       0       0       0      67       000010001D     69
     100       0       0       1       0       0       0               0D     70
     110      72       0       0       0       0       0       000010001D     71
     110       0       0       1       0       0       0               0D     72
     110      73       0       0       0       0       0       000010001D     73
     110       0       0       2       0       0       0               0D     74
     124      75       0       0       0       0       0       000010001D     75
     124       0       0       1       0       0       0               0D     76
     100      76       0       0       0       0      75       000010001D     77
     100       0       0       1       0       0       0               0D     78
     110      77       0       0       0       0       0       000010001D     79
     110       0       0       1       0       0       0               0D     80
     110      78       0       0       0       0       0       000010001D     81
     110       0       0       2       0       0       0               0D     82
     110      80       0       0       0       0       0       000010001D     83
     110       0       0       2       0       0       0               0D     84
     110      82       0       0       0       0       0       000010001D     85
     110       0       0       2       0       0       0               0D     86
     124      84       0       0       0       0       0       000010001D     87
     124       0       0       1       0       0       0               0D     88
     100      85       0       0       0       0      87       000010001D     89
     100       0       0       1       0       0       0               0D     90
     124      86       0       0       0       0       0       000010001D     91
     124       0       0       1       0       0       0               0D     92
     100      87       0       0       0       0      91       000010001D     93
     100       0       0       1       0       0       0               0D     94
     124      88       0       0       0       0       0       000010001D     95
     124       0       0       1       0       0       0               0D     96
     100      89       0       0       0       0      95       000010001D     97
     100       0       0       1       0       0       0               0D     98
     124      90       0       0       0       0       0       000010001D     99
     124       0       0       1       0       0       0               0D    100
     100      91       0       0       0       0      99       000010001D    101
     100       0       0       1       0       0       0               0D    102
     110      92       0       0       0       0       0       000010001D    103
     110       0       0       2       0       0       0               0D    104
     110      94       0       0       0       0       0       000010001D    105
     110       0       0       2       0       0       0               0D    106
     126      96       0       0       0       0       0       000010001D    107
     126       0       0      16       0       0       0               0D    108
     124     112       0       0       0       0       0       000010001D    109
     124       0       0       1       0       0       0               0D    110
     100     113       0       0       0       0     109       000010001D    111
     100       0       0       1       0       0       0               0D    112
     110     114       0       0       0       0       0       000010001D    113
     110       0       0       1       0       0       0               0D    114
     124     115       0       0       0       0       0       000010001D    115
     124       0       0       1       0       0       0               0D    116
     100     116       0       0       0       0     115       000010001D    117
     100       0       0       1       0       0       0               0D    118
     504     117       0       0       0       0       0       000010001D    119
     504       0       0       9       1       0       0               0D    120
     508     126       0       0       0       0       0       000010001D    121
     508       0       0       2       1       0       0               0D    122
     510     128       0       0       0       0       0       000010001D    123
     510       0       0       1       1       0       0               0D    124
     314     129       0       0       0       0       0       000010001D    125
     314       0       0       2       0       0       0               0D    126
     116     131       0       0       0       0       0       000010001D    127
     116       0       0       1       0       0       0               0D    128
     123     132       0       0       0       0       0       000010201D    129
     123       0       0       1       0       0       0               0D    130
     123     133       0       0       0       0       0       000010201D    131
     123       0       0       1       0       0       0               0D    132
     192     134       0       0       0       0       0       000010001D    133
     192       0    -125       1       1       0       0               0D    134
     508     135       0       0       0       0       0       000010001D    135
     508       0       0       2       1       0       0               0D    136
     510     137       0       0       0       0       0       000010001D    137
     510       0       0       1       1       0       0               0D    138
     314     138       0       0       0       0       0       000010001D    139
     314       0       0       2       0       0       0               0D    140
     116     140       0       0       0       0       0       000010001D    141
     116       0       0       1       0       0       0               0D    142
     123     141       0       0       0       0       0       000010201D    143
     123       0       0       1       0       0       0               0D    144
     123     142       0       0       0       0       0       000010201D    145
     123       0       0       1       0       0       0               0D    146
     192     143       0       0       0       0       0       000010001D    147
     192       0    -139       1       1       0       0               0D    148
     508     144       0       0       0       0       0       000010001D    149
     508       0       0       2       1       0       0               0D    150
     510     146       0       0       0       0       0       000010001D    151
     510       0       0       1       1       0       0               0D    152
     314     147       0       0       0       0       0       000010001D    153
     314       0       0       2       0       0       0               0D    154
     116     149       0       0       0       0       0       000010001D    155
     116       0       0       1       0       0       0               0D    156
     123     150       0       0       0       0       0       000010201D    157
     123       0       0       1       0       0       0               0D    158
     123     151       0       0       0       0       0       000010201D    159
     123       0       0       1       0       0       0               0D    160
     190     152       0       0       0       0       0       000010001D    161
     190       0    -153       1       1       0       0               0D    162
     508     153       0       0       0       0       0       000010001D    163
     508       0       0       2       1       0       0               0D    164
     510     155       0       0       0       0       0       000010001D    165
     510       0       0       1       1       0       0               0D    166
     314     156       0       0       0       0       0       000010001D    167
     314       0       0       2       0       0       0               0D    168
     116     158       0       0       0       0       0       000010001D    169
     116       0       0       1       0       0       0               0D    170
     123     159       0       0       0       0       0       000010201D    171
     123       0       0       1       0       0       0               0D    172
     123     160       0       0       0       0       0       000010201D    173
     123       0       0       1       0       0       0               0D    174
     190     161       0       0       0       0       0       000010001D    175
     190       0    -167       1       1       0       0               0D    176
     508     162       0       0       0       0       0       000010001D    177
     508       0       0       2       1       0       0               0D    178
     510     164       0       0       0       0       0       000010001D    179
     510       0       0       1       1       0       0               0D    180
     314     165       0       0       0       0       0       000010001D    181
     314       0       0       2       0       0       0               0D    182
     116     167       0       0       0       0       0       000010001D    183
     116       0       0       1       0       0       0               0D    184
     123     168       0       0       0       0       0       000010201D    185
     123       0       0       1       0       0       0               0D    186
     123     169       0       0       0       0       0       000010201D    187
     123       0       0       1       0       0       0               0D    188
     190     170       0       0       0       0       0       000010001D    189
     190       0    -181       1       1       0       0               0D    190
     508     171       0       0       0       0       0       000010001D    191
     508       0       0       2       1       0       0               0D    192
     510     173       0       0       0       0       0       000010001D    193
     510       0       0       1       1       0       0               0D    194
     314     174       0       0       0       0       0       000010001D    195
     314       0       0       2       0       0       0               0D    196
     116     176       0       0       0       0       0       000010001D    197
     116       0       0       1       0       0       0               0D    198
     123     177       0       0       0       0       0       000010201D    199
     123       0       0       1       0       0       0               0D    200
     123     178       0       0       0       0       0       000010201D    201
     123       0       0       1       0       0       0               0D    202
     190     179       0       0       0       0       0       000010001D    203
     190       0    -195       1       1       0       0               0D    204
     508     180       0       0       0       0       0       000010001D    205
     508       0       0       1       1       0       0               0D    206
     510     181       0       0       0       0       0       000010001D    207
     510       0       0       1       1       0       0               0D    208
     314     182       0       0       0       0       0       000010001D    209
     314       0       0       2       0       0       0               0D    210
     116     184       0       0       0       0       0       000010001D    211
     116       0       0       1       0       0       0               0D    212
     123     185       0       0       0       0       0       000010201D    213
     123       0       0       1       0       0       0               0D    214
     123     186       0       0       0       0       0       000010201D    215
     123       0       0       1       0       0       0               0D    216
     190     187       0       0       0       0       0       000010001D    217
     190       0    -209       1       1       0       0               0D    218
     508     188       0       0       0       0       0       000010001D    219
     508       0       0       1       1       0       0               0D    220
     510     189       0       0       0       0       0       000010001D    221
     510       0       0       1       1       0       0               0D    222
     314     190       0       0       0       0       0       000010001D    223
     314       0       0       2       0       0       0               0D    224
     116     192       0       0       0       0       0       000010001D    225
     116       0       0       1       0       0       0               0D    226
     123     193       0       0       0       0       0       000010201D    227
     123       0       0       1       0       0       0               0D    228
     123     194       0       0       0       0       0       000010201D    229
     123       0       0       1       0       0       0               0D    230
     190     195       0       0       0       0       0       000010001D    231
     190       0    -223       1       1       0       0               0D    232
     508     196       0       0       0       0       0       000010001D    233
     508       0       0       1       1       0       0               0D    234
     510     197       0       0       0       0       0       000010001D    235
     510       0       0       1       1       0       0               0D    236
     314     198       0       0       0       0       0       000010001D    237
     314       0       0       2       0       0       0               0D    238
     116     200       0       0       0       0       0       000010001D    239
     116       0       0       1       0       0       0               0D    240
     123     201       0       0       0       0       0       000010201D    241
     123       0       0       1       0       0       0               0D    242
     123     202       0       0       0       0       0       000010201D    243
     123       0       0       1       0       0       0               0D    244
     190     203       0       0       0       0       0       000010001D    245
     190       0    -237       1       1       0       0               0D    246
     508     204       0       0       0       0       0       000010001D    247
     508       0       0       2       1       0       0               0D    248
     510     206       0       0       0       0       0       000010001D    249
     510       0       0       1       1       0       0               0D    250
     314     207       0       0       0       0       0       000010001D    251
     314       0       0       2       0       0       0               0D    252
     116     209       0       0       0       0       0       000010001D    253
     116       0       0       1       0       0       0               0D    254
     123     210       0       0       0       0       0       000010201D    255
     123       0       0       1       0       0       0               0D    256
     123     211       0       0       0       0       0       000010201D    257
     123       0       0       1       0       0       0               0D    258
     192     212       0       0       0       0       0       000010001D    259
     192       0    -251       1       1       0       0               0D    260
     508     213       0       0       0       0       0       000010001D    261
     508       0       0       2       1       0       0               0D    262
     510     215       0       0       0       0       0       000010001D    263
     510       0       0       1       1       0       0               0D    264
     314     216       0       0       0       0       0       000010001D    265
     314       0       0       2       0       0       0               0D    266
     116     218       0       0       0       0       0       000010001D    267
     116       0       0       1       0       0       0               0D    268
     123     219       0       0       0       0       0       000010201D    269
     123       0       0       1       0       0       0               0D    270
     123     220       0       0       0       0       0       000010201D    271
     123       0       0       1       0       0       0               0D    272
     190     221       0       0       0       0       0       000010001D    273
     190       0    -265       1       1       0       0               0D    274
     508     222       0       0       0       0       0       000010001D    275
     508       0       0       1       1       0       0               0D    276
     508     223       0       0       0       0       0       000010001D    277
     508       0       0       1       1       0       0               0D    278
     510     224       0       0       0       0       0       000010001D    279
     510       0       0       1       1       0       0               0D    280
     314     225       0       0       0       0       0       000010001D    281
     314       0       0       2       0       0       0               0D    282
     116     227       0       0       0       0       0       000010001D    283
     116       0       0       1       0       0       0               0D    284
     123     228       0       0       0       0       0       000010201D    285
     123       0       0       1       0       0       0               0D    286
     123     229       0       0       0       0       0       000010201D    287
     123       0       0       1       0       0       0               0D    288
     192     230       0       0       0       0       0       000010001D    289
     192       0    -281       1       1       0       0               0D    290
     508     231       0       0       0       0       0       000010001D    291
     508       0       0       2       1       0       0               0D    292
     510     233       0       0       0       0       0       000010001D    293
     510       0       0       1       1       0       0               0D    294
     314     234       0       0       0       0       0       000010001D    295
     314       0       0       2       0       0       0               0D    296
     116     236       0       0       0       0       0       000010001D    297
     116       0       0       1       0       0       0               0D    298
     123     237       0       0       0       0       0       000010201D    299
     123       0       0       1       0       0       0               0D    300
     123     238       0       0       0       0       0       000010201D    301
     123       0       0       1       0       0       0               0D    302
     190     239       0       0       0       0       0       000010001D    303
     190       0    -295       1       1       0       0               0D    304
     508     240       0       0       0       0       0       000010001D    305
     508       0       0       1       1       0       0               0D    306
     510     241       0       0       0       0       0       000010001D    307
     510       0       0       1       1       0       0               0D    308
     314     242       0       0       0       0       0       000010001D    309
     314       0       0       2       0       0       0               0D    310
     116     244       0       0       0       0       0       000010001D    311
     116       0       0       1       0       0       0               0D    312
     123     245       0       0       0       0       0       000010201D    313
     123       0       0       1       0       0       0               0D    314
     123     246       0       0       0       0       0       000010201D    315
     123       0       0       1       0       0       0               0D    316
     190     247       0       0       0       0       0       000010001D    317
     190       0    -309       1       1       0       0               0D    318
     508     248       0       0       0       0       0       000010001D    319
     508       0       0       1       1       0       0               0D    320
     510     249       0       0       0       0       0       000010001D    321
     510       0       0       1       1       0       0               0D    322
     314     250       0       0       0       0       0       000010001D    323
     314       0       0       2       0       0       0               0D    324
     116     252       0       0       0       0       0       000010001D    325
     116       0       0       1       0       0       0               0D    326
     123     253       0       0       0       0       0       000010201D    327
     123       0       0       1       0       0       0               0D    328
     123     254       0       0       0       0       0       000010201D    329
     123       0       0       1       0       0       0               0D    330
     192     255       0       0       0       0       0       000010001D    331
     192       0    -323       1       1       0       0               0D    332
     508     256       0       0       0       0       0       000010001D    333
     508       0       0       2       1       0       0               0D    334
     510     258       0       0       0       0       0       000010001D    335
     510       0       0       1       1       0       0               0D    336
     314     259       0       0       0       0       0       000010001D    337
     314       0       0       2       0       0       0               0D    338
     116     261       0       0       0       0       0       000010001D    339
     116       0       0       1       0       0       0               0D    340
     123     262       0       0       0       0       0       000010201D    341
     123       0       0       1       0       0       0               0D    342
     123     263       0       0       0       0       0       000010201D    343
     123       0       0       1       0       0       0               0D    344
     190     264       0       0       0       0       0       000010001D    345
     190       0    -337       1       1       0       0               0D    346
     508     265       0       0       0       0       0       000010001D    347
     508       0       0       1       1       0       0               0D    348
     510     266       0       0       0       0       0       000010001D    349
     510       0       0       1       1       0       0               0D    350
     514     267       0       0       0       0       0       000010001D    351
     514       0       0       2       1       0       0               0D    352
     186     269       0       0       0       0       0       000000001D    353
     186       0       0       1       0       0       0   Solid       0D    354
314,56.07843137254902,68.62745098039216,56.07843137254902,10HMix       1P      1
edColor;                                                               1P      2
116,0.,0.,0.;                                                          3P      3
123,0.,1.,0.;                                                          5P      4
123,-1.,0.,0.;                                                         7P      5
192,3,5,50.8,7;                                                        9P      6
110,-387.34999999999997,-152.40000000000001,-6.34999999999999,        11P      7
-387.34999999999997,-152.40000000000001,6.34999999999999;             11P      8
502,25,0.,50.8,0.00000000000001,-387.34999999999997,0.,               13P      9
-6.34999999999999,-374.65000000000003,-152.40000000000001,            13P     10
6.34999999999999,0.,0.00000000000001,-50.8,-254.,-12.7,0.,            13P     11
-387.34999999999997,-152.40000000000001,6.34999999999999,             13P     12
-374.65000000000003,-12.7,-0.,-381.,-10.99852262806238,               13P     13
-6.34999999999999,-50.79999999999999,-50.79999999999999,              13P     14
-0.00000000000001,-381.,0.,-6.34999999999999,-254.,50.8,              13P     15
0.00000000000001,-254.,12.7,0.,-374.65000000000003,                   13P     16
-10.99852262806238,6.34999999999999,-374.65000000000003,              13P     17
-10.99852262806238,-6.34999999999999,0.,-0.,50.8,50.8,                13P     18
-203.19999999999999,-0.00000000000001,-254.,-50.8,0.,                 13P     19
-374.65000000000003,-152.40000000000001,-6.34999999999999,50.8,       13P     20
0.,-0.00000000000001,-381.,12.7,0.,-50.8,-203.19999999999999,0.,      13P     21
-387.34999999999997,-152.40000000000001,-6.34999999999999,-381.,      13P     22
-10.99852262806238,6.34999999999999,-381.,0.,6.34999999999999,        13P     23
-387.34999999999997,0.,6.34999999999999;                              13P     24
110,-387.34999999999997,-152.40000000000001,6.34999999999999,         15P     25
-374.65000000000003,-152.40000000000001,6.34999999999999;             15P     26
124,-1.,0.,0.,0.,0.,0.,1.,0.,0.,1.,0.,0.;                             17P     27
100,0.,0.,0.,0.,50.8,-50.8,0.00000000000001;                          19P     28
110,-381.,-10.99852262806238,6.34999999999999,                        21P     29
-374.65000000000003,-10.99852262806238,6.34999999999999;              21P     30
124,-1.,0.,0.,0.,0.,0.,1.,0.,0.,1.,0.,0.;                             23P     31
100,0.,0.,0.,-50.8,0.00000000000001,-0.00000000000001,-50.8;          25P     32
110,-374.65000000000003,-10.99852262806238,-6.34999999999999,         27P     33
-374.65000000000003,-152.40000000000001,-6.34999999999999;            27P     34
110,-374.65000000000003,-152.40000000000001,6.34999999999999,         29P     35
-374.65000000000003,-152.40000000000001,-6.34999999999999;            29P     36
124,0.,0.,1.,-374.65000000000003,-1.,0.,0.,0.,0.,-1.,0.,0.;           31P     37
100,0.,0.,0.,10.99852262806237,-6.34999999999999,12.7,0.;             33P     38
124,0.,0.,-1.,-381.,-1.,0.,0.,0.,0.,1.,0.,0.;                         35P     39
100,0.,0.,0.,-12.7,0.,10.99852262806237,-6.35;                        37P     40
126,4,3,0,0,0,0,0.37118460102435,0.37118460102435,                    39P     41
0.37118460102435,0.37118460102435,0.78539816339745,                   39P     42
1.19961172577054,1.19961172577054,1.19961172577054,                   39P     43
1.19961172577054,1.17157287525381,1.05719095841794,                   39P     44
0.94280904158206,1.05719095841794,1.17157287525381,-50.8,-50.8,       39P     45
-0.00000000000001,-50.8,-50.8,-13.26915684815807,                     39P     46
-40.27897551572339,-40.27897551572339,-40.27897551572337,             39P     47
-13.26915684815807,-13.26915684815807,-50.79999999999999,-0.,         39P     48
-0.,-50.8,0.37118460102435,1.19961172577054;                          39P     49
110,-381.,-10.99852262806238,-6.34999999999999,-381.,0.,              41P     50
-6.34999999999999;                                                    41P     51
110,-387.34999999999997,0.,-6.34999999999999,                         43P     52
-387.34999999999997,0.,6.34999999999999;                              43P     53
124,0.,0.,1.,-254.,-1.,0.,0.,0.,0.,-1.,0.,0.;                         45P     54
100,0.,0.,0.,50.8,0.,-50.8,0.00000000000001;                          47P     55
110,50.8,-203.19999999999999,-0.00000000000001,50.8,0.,               49P     56
-0.00000000000001;                                                    49P     57
110,-254.,50.8,0.00000000000001,0.,50.8,0.00000000000001;             51P     58
110,-254.,-12.7,-0.,-374.65000000000003,-12.7,-0.;                    53P     59
124,0.,0.,1.,-254.,-1.,0.,0.,0.,0.,-1.,0.,0.;                         55P     60
100,0.,0.,0.,-50.8,0.00000000000001,50.8,-0.00000000000001;           57P     61
110,-381.,0.,-6.34999999999999,-387.34999999999997,0.,                59P     62
-6.34999999999999;                                                    59P     63
110,-50.8,-50.79999999999999,0.00000000000001,-50.8,                  61P     64
-203.19999999999999,0.00000000000001;                                 61P     65
110,-374.65000000000003,-152.40000000000001,-6.34999999999999,        63P     66
-387.34999999999997,-152.40000000000001,-6.34999999999999;            63P     67
110,-387.34999999999997,0.,6.34999999999999,-387.34999999999997,      65P     68
-152.40000000000001,6.34999999999999;                                 65P     69
124,0.,0.,-1.,0.,-1.,0.,0.,0.,0.,1.,0.,0.;                            67P     70
100,0.,0.,0.,-50.8,0.00000000000001,-0.00000000000001,-50.8;          69P     71
110,-381.,0.,-6.34999999999999,-381.,0.,6.34999999999999;             71P     72
110,-50.79999999999999,-50.8,-0.00000000000001,-254.,-50.8,           73P     73
-0.00000000000001;                                                    73P     74
124,0.,0.,-1.,-254.,-1.,0.,0.,0.,0.,1.,0.,0.;                         75P     75
100,0.,0.,0.,-12.7,0.,12.7,-0.;                                       77P     76
110,0.,0.,-50.8,0.,0.,50.8;                                           79P     77
110,-381.,0.,6.34999999999999,-381.,-10.99852262806238,               81P     78
6.34999999999999;                                                     81P     79
110,-387.34999999999997,0.,-6.34999999999999,                         83P     80
-387.34999999999997,-152.40000000000001,-6.34999999999999;            83P     81
110,-387.34999999999997,0.,6.34999999999999,-381.,0.,                 85P     82
6.34999999999999;                                                     85P     83
124,0.,0.,-1.,-381.,-1.,0.,0.,0.,0.,1.,0.,0.;                         87P     84
100,0.,0.,0.,10.99852262806237,6.34999999999999,-12.7,0.;             89P     85
124,0.,0.,-1.,0.,-1.,0.,0.,0.,0.,1.,0.,0.;                            91P     86
100,0.,0.,0.,0.,50.8,-50.8,0.00000000000001;                          93P     87
124,0.,0.,-1.,-254.,-1.,0.,0.,0.,0.,1.,0.,0.;                         95P     88
100,0.,0.,0.,12.7,0.,-12.7,0.;                                        97P     89
124,-1.,0.,0.,0.,0.,0.,1.,-203.19999999999999,0.,1.,0.,0.;            99P     90
100,0.,0.,0.,-50.8,0.00000000000001,50.8,-0.00000000000001;          101P     91
110,-374.65000000000003,-10.99852262806238,6.34999999999999,         103P     92
-374.65000000000003,-152.40000000000001,6.34999999999999;            103P     93
110,-374.65000000000003,-10.99852262806238,-6.34999999999999,        105P     94
-381.,-10.99852262806238,-6.34999999999999;                          105P     95
126,8,3,0,0,0,0,-1.37700961247583,-1.37700961247583,                 107P     96
-1.37700961247583,-1.37700961247583,-1.17809724509617,               107P     97
-0.97918487771651,-0.97918487771651,-0.97918487771651,               107P     98
-0.78027251033686,-0.5813601429572,-0.5813601429572,                 107P     99
-0.5813601429572,-0.5813601429572,1.03956612989658,                  107P    100
1.01318870996553,0.98681129003447,1.01318870996553,                  107P    101
1.03956612989658,1.01318870996553,0.98681129003447,                  107P    102
1.01318870996553,1.03956612989658,-0.,-0.,50.8,                      107P    103
-6.64880962022724,-6.64880962022724,50.8,-19.95995717073799,         107P    104
-19.95995717073799,48.18759930598174,-31.21960611499558,             107P    105
-31.21960611499558,40.62244285355764,-35.92102448427662,             107P    106
-35.92102448427662,35.92102448427661,-40.62244285355764,             107P    107
-40.62244285355764,31.21960611499556,-48.18759930598176,             107P    108
-48.18759930598176,19.95995717073798,-50.79999999999999,             107P    109
-50.79999999999999,6.64880962022722,-50.8,-50.8,                     107P    110
-0.00000000000001,-1.37700961247583,-0.5813601429572;                107P    111
124,-1.,0.,0.,0.,0.,0.,1.,-203.19999999999999,0.,1.,0.,0.;           109P    112
100,0.,0.,0.,50.8,0.,-50.8,0.00000000000001;                         111P    113
110,-381.,12.7,0.,-254.,12.7,0.;                                     113P    114
124,0.,0.,1.,-374.65000000000003,-1.,0.,0.,0.,0.,-1.,0.,0.;          115P    115
100,0.,0.,0.,12.7,0.,10.99852262806237,6.34999999999999;             117P    116
504,39,11,13,22,13,6,15,13,6,13,3,19,13,15,13,19,21,13,23,13,13,     119P    117
25,13,19,13,4,27,13,14,13,18,29,13,3,13,18,33,13,13,13,7,37,13,      119P    118
20,13,8,39,13,9,13,4,41,13,8,13,10,43,13,2,13,25,47,13,17,13,11,     119P    119
49,13,16,13,19,51,13,11,13,1,53,13,5,13,7,57,13,11,13,17,59,13,      119P    120
10,13,2,61,13,9,13,21,63,13,18,13,22,65,13,25,13,6,69,13,1,13,4,     119P    121
71,13,10,13,24,73,13,9,13,17,77,13,12,13,5,79,13,4,13,15,81,13,      119P    122
24,13,23,83,13,2,13,22,85,13,25,13,24,89,13,23,13,20,93,13,15,       119P    123
13,1,97,13,5,13,12,101,13,16,13,21,103,13,13,13,3,105,13,14,13,      119P    124
8,107,13,15,13,9,111,13,21,13,16,113,13,20,13,12,117,13,7,13,14;     119P    125
508,5,0,119,19,0,0,0,119,10,1,0,0,119,5,0,0,0,119,14,0,0,0,119,      121P    126
33,1,0;                                                              121P    127
510,9,1,1,121;                                                       123P    128
314,56.07843137254902,68.62745098039216,56.07843137254902,10HMix     125P    129
edColor;                                                             125P    130
116,0.,0.,0.;                                                        127P    131
123,1.,0.,0.;                                                        129P    132
123,0.,-1.,0.;                                                       131P    133
192,127,129,50.8,131;                                                133P    134
508,5,0,119,24,0,0,0,119,36,0,0,0,119,31,1,0,0,119,15,0,0,0,119,     135P    135
17,1,0;                                                              135P    136
510,133,1,1,135;                                                     137P    137
314,56.07843137254902,68.62745098039216,56.07843137254902,10HMix     139P    138
edColor;                                                             139P    139
116,-254.,0.,0.;                                                     141P    140
123,1.,0.,0.;                                                        143P    141
123,0.,-1.,0.;                                                       145P    142
192,141,143,12.7,145;                                                147P    143
508,6,0,119,38,0,0,0,119,30,0,0,0,119,4,1,0,0,119,8,1,0,0,119,       149P    144
16,0,0,0,119,32,1,0;                                                 149P    145
510,147,1,1,149;                                                     151P    146
314,56.07843137254902,68.62745098039216,56.07843137254902,10HMix     153P    147
edColor;                                                             153P    148
116,-381.,0.,-6.34999999999999;                                      155P    149
123,0.,0.,-1.;                                                       157P    150
123,1.,0.,0.;                                                        159P    151
190,155,157,159;                                                     161P    152
508,6,0,119,11,0,0,0,119,35,0,0,0,119,6,1,0,0,119,20,1,0,0,119,      163P    153
28,0,0,0,119,18,0,0;                                                 163P    154
510,161,1,1,163;                                                     165P    155
314,56.07843137254902,68.62745098039216,56.07843137254902,10HMix     167P    156
edColor;                                                             167P    157
116,-374.65000000000003,0.,0.;                                       169P    158
123,1.,0.,0.;                                                        171P    159
123,0.,0.,1.;                                                        173P    160
190,169,171,173;                                                     175P    161
508,5,0,119,8,0,0,0,119,34,1,0,0,119,7,1,0,0,119,6,0,0,0,119,39,     177P    162
0,0;                                                                 177P    163
510,175,1,1,177;                                                     179P    164
314,56.07843137254902,68.62745098039216,56.07843137254902,10HMix     181P    165
edColor;                                                             181P    166
116,-381.,0.,6.34999999999999;                                       183P    167
123,0.,0.,1.;                                                        185P    168
123,-1.,0.,0.;                                                       187P    169
190,183,185,187;                                                     189P    170
508,6,0,119,27,0,0,0,119,29,0,0,0,119,21,1,0,0,119,2,1,0,0,119,      191P    171
34,0,0,0,119,4,0,0;                                                  191P    172
510,189,1,1,191;                                                     193P    173
314,56.07843137254902,68.62745098039216,56.07843137254902,10HMix     195P    174
edColor;                                                             195P    175
116,-387.34999999999997,0.,0.;                                       197P    176
123,-1.,0.,0.;                                                       199P    177
123,0.,0.,-1.;                                                       201P    178
190,197,199,201;                                                     203P    179
508,4,0,119,1,1,0,0,119,21,0,0,0,119,12,0,0,0,119,28,1,0;            205P    180
510,203,1,1,205;                                                     207P    181
314,56.07843137254902,68.62745098039216,56.07843137254902,10HMix     209P    182
edColor;                                                             209P    183
116,-254.,-152.40000000000001,0.;                                    211P    184
123,0.,-1.,0.;                                                       213P    185
123,-1.,0.,0.;                                                       215P    186
190,211,213,215;                                                     217P    187
508,4,0,119,2,0,0,0,119,1,0,0,0,119,20,0,0,0,119,7,0,0;              219P    188
510,217,1,1,219;                                                     221P    189
314,56.07843137254902,68.62745098039216,56.07843137254902,10HMix     223P    190
edColor;                                                             223P    191
116,-254.,0.,0.;                                                     225P    192
123,0.,-1.,0.;                                                       227P    193
123,-1.,0.,0.;                                                       229P    194
190,225,227,229;                                                     231P    195
508,4,0,119,23,0,0,0,119,18,1,0,0,119,12,1,0,0,119,29,1,0;           233P    196
510,231,1,1,233;                                                     235P    197
314,56.07843137254902,68.62745098039216,56.07843137254902,10HMix     237P    198
edColor;                                                             237P    199
116,-381.,0.,0.;                                                     239P    200
123,-1.,0.,0.;                                                       241P    201
123,0.,1.,0.;                                                        243P    202
190,239,241,243;                                                     245P    203
508,5,0,119,11,1,0,0,119,23,1,0,0,119,27,1,0,0,119,30,1,0,0,119,     247P    204
9,1,0;                                                               247P    205
510,245,1,1,247;                                                     249P    206
314,56.07843137254902,68.62745098039216,56.07843137254902,10HMix     251P    207
edColor;                                                             251P    208
116,-254.,0.,0.;                                                     253P    209
123,1.,0.,0.;                                                        255P    210
123,0.,-1.,0.;                                                       257P    211
192,253,255,12.7,257;                                                259P    212
508,6,0,119,38,1,0,0,119,25,1,0,0,119,16,1,0,0,119,39,1,0,0,119,     261P    213
35,1,0,0,119,9,0,0;                                                  261P    214
510,259,1,1,261;                                                     263P    215
314,56.07843137254902,68.62745098039216,56.07843137254902,10HMix     265P    216
edColor;                                                             265P    217
116,-254.,0.,0.;                                                     267P    218
123,-1.,0.,0.;                                                       269P    219
123,0.,1.,0.;                                                        271P    220
190,267,269,271;                                                     273P    221
508,2,0,119,13,0,0,0,119,17,0,0;                                     275P    222
508,2,0,119,32,0,0,0,119,25,0,0;                                     277P    223
510,273,2,1,275,277;                                                 279P    224
314,56.07843137254902,68.62745098039216,56.07843137254902,10HMix     281P    225
edColor;                                                             281P    226
116,0.,0.,0.;                                                        283P    227
123,1.,0.,0.;                                                        285P    228
123,0.,-1.,0.;                                                       287P    229
192,283,285,50.8,287;                                                289P    230
508,5,0,119,24,1,0,0,119,13,1,0,0,119,15,1,0,0,119,22,1,0,0,119,     291P    231
10,0,0;                                                              291P    232
510,289,1,1,291;                                                     293P    233
314,56.07843137254902,68.62745098039216,56.07843137254902,10HMix     295P    234
edColor;                                                             295P    235
116,0.,0.,0.;                                                        297P    236
123,-1.,0.,0.;                                                       299P    237
123,0.,1.,0.;                                                        301P    238
190,297,299,301;                                                     303P    239
508,3,0,119,26,0,0,0,119,22,0,0,0,119,31,0,0;                        305P    240
510,303,1,1,305;                                                     307P    241
314,56.07843137254902,68.62745098039216,56.07843137254902,10HMix     309P    242
edColor;                                                             309P    243
116,0.,0.,0.;                                                        311P    244
123,0.,1.,0.;                                                        313P    245
123,0.,0.,1.;                                                        315P    246
190,311,313,315;                                                     317P    247
508,3,0,119,26,1,0,0,119,3,1,0,0,119,5,1,0;                          319P    248
510,317,1,1,319;                                                     321P    249
314,56.07843137254902,68.62745098039216,56.07843137254902,10HMix     323P    250
edColor;                                                             323P    251
116,0.,0.,0.;                                                        325P    252
123,0.,1.,0.;                                                        327P    253
123,-1.,0.,0.;                                                       329P    254
192,325,327,50.8,329;                                                331P    255
508,5,0,119,19,1,0,0,119,37,1,0,0,119,14,1,0,0,119,3,0,0,0,119,      333P    256
36,1,0;                                                              333P    257
510,331,1,1,333;                                                     335P    258
314,56.07843137254902,68.62745098039216,56.07843137254902,10HMix     337P    259
edColor;                                                             337P    260
116,0.,-203.19999999999999,0.;                                       339P    261
123,0.,1.,0.;                                                        341P    262
123,0.,0.,1.;                                                        343P    263
190,339,341,343;                                                     345P    264
508,2,0,119,37,0,0,0,119,33,0,0;                                     347P    265
510,345,1,1,347;                                                     349P    266
514,17,123,1,137,1,151,1,165,1,179,1,193,1,207,1,221,1,235,0,        351P    267
249,1,263,1,279,1,293,1,307,0,321,1,335,1,349,0;                     351P    268
186,351,1,0;                                                         353P    269
S      1G      3D    354P    269                                        T      1
