                                                                        S      1
,,5HFEA_1,5HFEA_1,7Hunknown,7Hunknown,32,38,7,99,15,,1.,1,4HINCH,1,0.08,G      1
15H20180220.181227,0.000393700787401575,10000.,7Hunknown,7Hunknown,11,0,G      2
;                                                                       G      3
     186       1                                                00000000D      1
     186            -157       1       0                               0D      2
     514       2                                                00010000D      3
     514                       2       1                               0D      4
     510       4                                                00010000D      5
     510            -157       1       1                               0D      6
     510       5                                                00010000D      7
     510            -157       1       1                               0D      8
     510       6                                                00010000D      9
     510            -157       1       1                               0D     10
     510       7                                                00010000D     11
     510            -157       1       1                               0D     12
     510       8                                                00010000D     13
     510            -157       1       1                               0D     14
     510       9                                                00010000D     15
     510            -157       1       1                               0D     16
     510      10                                                00010000D     17
     510            -157       1       1                               0D     18
     510      11                                                00010000D     19
     510            -157       1       1                               0D     20
     510      12                                                00010000D     21
     510            -157       1       1                               0D     22
     510      13                                                00010000D     23
     510            -157       1       1                               0D     24
     510      14                                                00010000D     25
     510            -157       1       1                               0D     26
     510      15                                                00010000D     27
     510            -157       1       1                               0D     28
     510      16                                                00010000D     29
     510            -157       1       1                               0D     30
     510      17                                                00010000D     31
     510            -157       1       1                               0D     32
     508      18                                                00010000D     33
     508                       1       1                               0D     34
     508      19                                                00010000D     35
     508                       1       1                               0D     36
     508      20                                                00010000D     37
     508                       2       1                               0D     38
     508      22                                                00010000D     39
     508                       1       1                               0D     40
     508      23                                                00010000D     41
     508                       2       1                               0D     42
     508      25                                                00010000D     43
     508                       1       1                               0D     44
     508      26                                                00010000D     45
     508                       2       1                               0D     46
     508      28                                                00010000D     47
     508                       2       1                               0D     48
     508      30                                                00010000D     49
     508                       2       1                               0D     50
     508      32                                                00010000D     51
     508                       1       1                               0D     52
     508      33                                                00010000D     53
     508                       1       1                               0D     54
     508      34                                                00010000D     55
     508                       1       1                               0D     56
     508      35                                                00010000D     57
     508                       1       1                               0D     58
     508      36                                                00010000D     59
     508                       2       1                               0D     60
     508      38                                                00010000D     61
     508                       1       1                               0D     62
     126      39                                                00010000D     63
     126       0               3       0                               0D     64
     126      42                                                00010000D     65
     126       0               2       0                               0D     66
     126      44                                                00010000D     67
     126       0               3       0                               0D     68
     126      47                                                00010000D     69
     126       0               2       0                               0D     70
     126      49                                                00010000D     71
     126       0               2       0                               0D     72
     126      51                                                00010000D     73
     126       0               2       0                               0D     74
     126      53                                                00010000D     75
     126       0               2       0                               0D     76
     126      55                                                00010000D     77
     126       0               3       0                               0D     78
     126      58                                                00010000D     79
     126       0               3       0                               0D     80
     126      61                                                00010000D     81
     126       0               3       0                               0D     82
     126      64                                                00010000D     83
     126       0               3       0                               0D     84
     126      67                                                00010000D     85
     126       0               2       0                               0D     86
     126      69                                                00010000D     87
     126       0               2       0                               0D     88
     126      71                                                00010000D     89
     126       0               3       0                               0D     90
     126      74                                                00010000D     91
     126       0               3       0                               0D     92
     126      77                                                00010000D     93
     126       0               3       0                               0D     94
     126      80                                                00010000D     95
     126       0               5       0                               0D     96
     126      85                                                00010000D     97
     126       0               6       0                               0D     98
     126      91                                                00010000D     99
     126       0               3       0                               0D    100
     126      94                                                00010000D    101
     126       0               9       0                               0D    102
     126     103                                                00010000D    103
     126       0              10       0                               0D    104
     126     113                                                00010000D    105
     126       0              11       0                               0D    106
     126     124                                                00010000D    107
     126       0               4       0                               0D    108
     126     128                                                00010000D    109
     126       0               8       0                               0D    110
     126     136                                                00010000D    111
     126       0               7       0                               0D    112
     126     143                                                00010000D    113
     126       0               4       0                               0D    114
     126     147                                                00010000D    115
     126       0               5       0                               0D    116
     126     152                                                00010000D    117
     126       0               5       0                               0D    118
     126     157                                                00010000D    119
     126       0               2       0                               0D    120
     126     159                                                00010000D    121
     126       0               9       0                               0D    122
     128     168                                                00010000D    123
     128       0    -157       7       0                               0D    124
     128     175                                                00010000D    125
     128       0    -157       5       0                               0D    126
     128     180                                                00010000D    127
     128       0    -157       6       0                               0D    128
     128     186                                                00010000D    129
     128       0    -157       6       0                               0D    130
     128     192                                                00010000D    131
     128       0    -157       6       0                               0D    132
     128     198                                                00010000D    133
     128       0    -157       6       0                               0D    134
     128     204                                                00010000D    135
     128       0    -157      14       0                               0D    136
     128     218                                                00010000D    137
     128       0    -157       7       0                               0D    138
     128     225                                                00010000D    139
     128       0    -157      23       0                               0D    140
     128     248                                                00010000D    141
     128       0    -157       7       0                               0D    142
     128     255                                                00010000D    143
     128       0    -157       7       0                               0D    144
     128     262                                                00010000D    145
     128       0    -157       6       0                               0D    146
     128     268                                                00010000D    147
     128       0    -157      11       0                               0D    148
     128     279                                                00010000D    149
     128       0    -157       5       0                               0D    150
     502     284                                                00010000D    151
     502                       7       1                               0D    152
     504     291                                                00010001D    153
     504                       8       1                               0D    154
     406     299                                                00000000D    155
     406                       1      15                               0D    156
     314     300                                                00000200D    157
     314                       2       0                               0D    158
186,3,1,0,0,1,155;                                                     1P      1
514,14,5,1,7,1,9,1,11,1,13,1,15,1,17,1,19,1,21,1,23,1,25,1,27,1,       3P      2
29,1,31,1;                                                             3P      3
510,123,1,1,33;                                                        5P      4
510,125,1,1,35;                                                        7P      5
510,127,1,1,37;                                                        9P      6
510,129,1,1,39;                                                       11P      7
510,131,1,1,41;                                                       13P      8
510,133,1,1,43;                                                       15P      9
510,135,1,1,45;                                                       17P     10
510,137,1,1,47;                                                       19P     11
510,139,1,1,49;                                                       21P     12
510,141,2,1,51,53;                                                    23P     13
510,143,1,1,55;                                                       25P     14
510,145,1,1,57;                                                       27P     15
510,147,1,1,59;                                                       29P     16
510,149,1,1,61;                                                       31P     17
508,4,0,153,1,0,0,0,153,2,0,0,0,153,3,0,0,0,153,4,0,0;                33P     18
508,4,0,153,2,1,0,0,153,5,1,0,0,153,6,0,0,0,153,7,0,0;                35P     19
508,6,0,153,1,1,0,0,153,8,1,0,0,153,9,0,0,0,153,10,0,0,0,153,11,      37P     20
0,0,0,153,5,0,0;                                                      37P     21
508,4,0,153,12,0,0,0,153,13,1,0,0,153,6,1,0,0,153,11,1,0;             39P     22
508,6,0,153,3,1,0,0,153,7,1,0,0,153,13,0,0,0,153,14,0,0,0,153,        41P     23
15,0,0,0,153,16,0,0;                                                  41P     24
508,4,0,153,4,1,0,0,153,16,1,0,0,153,17,0,0,0,153,8,0,0;              43P     25
508,8,0,153,9,1,0,0,153,17,1,0,0,153,15,1,0,0,153,18,0,0,0,153,       45P     26
19,1,0,0,153,20,0,0,0,153,19,0,0,0,153,21,0,0;                        45P     27
508,5,0,153,10,1,0,0,153,21,1,0,0,153,18,1,0,0,153,14,1,0,0,153,      47P     28
12,1,0;                                                               47P     29
508,5,0,153,22,0,0,0,153,23,1,0,0,153,24,0,0,0,153,25,1,0,0,153,      49P     30
23,0,0;                                                               49P     31
508,1,0,153,22,1,0;                                                   51P     32
508,1,0,153,20,1,0;                                                   53P     33
508,2,0,153,26,0,0,0,153,25,0,0;                                      55P     34
508,3,0,153,26,1,0,0,153,27,1,0,0,153,28,1,0;                         57P     35
508,6,0,153,24,1,0,0,153,28,0,0,0,153,29,1,0,0,153,30,1,0,0,153,      59P     36
29,0,0,0,153,27,0,0;                                                  59P     37
508,1,0,153,30,0,0;                                                   61P     38
126,1,1,0,0,1,0,-0.317500000000003,-0.317500000000003,                63P     39
0.952500000000008,0.952500000000008,1.,1.,15.25,2.,-0.25,14.75,       63P     40
2.,-0.25,-0.317500000000003,0.952500000000008,0.,0.,0.;               63P     41
126,1,1,0,0,1,0,-0.3175,-0.3175,0.9525,0.9525,1.,1.,15.25,2.,         65P     42
0.25,15.25,2.,-0.25,-0.3175,0.9525,0.,0.,0.;                          65P     43
126,1,1,0,0,1,0,-0.317500000000003,-0.317500000000003,                67P     44
0.952500000000008,0.952500000000008,1.,1.,14.75,2.,0.25,15.25,        67P     45
2.,0.25,-0.317500000000003,0.952500000000008,0.,0.,0.;                67P     46
126,1,1,0,0,1,0,-0.3175,-0.3175,0.9525,0.9525,1.,1.,14.75,2.,         69P     47
-0.25,14.75,2.,0.25,-0.3175,0.9525,0.,0.,0.;                          69P     48
126,1,1,0,0,1,0,5.08,5.08,20.32,20.32,1.,1.,15.25,2.,-0.25,           71P     49
15.25,8.,-0.25,5.08,20.32,0.,0.,0.;                                   71P     50
126,1,1,0,0,1,0,-1.27,-1.27,0.,0.,1.,1.,15.25,8.,0.25,15.25,8.,       73P     51
-0.25,-1.27,0.,0.,0.,0.;                                              73P     52
126,1,1,0,0,1,0,5.08,5.08,20.32,20.32,1.,1.,15.25,2.,0.25,15.25,      75P     53
8.,0.25,5.08,20.32,0.,0.,0.;                                          75P     54
126,1,1,0,0,1,0,5.08,5.08,19.2201477371938,19.2201477371938,1.,       77P     55
1.,14.75,2.,-0.25,14.75,7.56698729810778,-0.25,5.08,                  77P     56
19.2201477371938,0.,0.,0.;                                            77P     57
126,1,1,0,0,1,0,-12.7,-12.7,-12.065,-12.065,1.,1.,15.,                79P     58
7.56698729810778,-0.25,14.75,7.56698729810778,-0.25,-12.7,            79P     59
-12.065,0.,0.,0.;                                                     79P     60
126,1,1,0,0,1,0,-10.16,-10.16,-9.06014773719376,                      81P     61
-9.06014773719376,1.,1.,15.,8.,-0.25,15.,7.56698729810778,-0.25,      81P     62
-10.16,-9.06014773719376,0.,0.,0.;                                    81P     63
126,1,1,0,0,1,0,-1.27000000000001,-1.27000000000001,                  83P     64
-0.635000000000005,-0.635000000000005,1.,1.,15.25,8.,-0.25,15.,       83P     65
8.,-0.25,-1.27000000000001,-0.635000000000005,0.,0.,0.;               83P     66
126,1,1,0,0,1,0,-0.635,-0.635,0.635,0.635,1.,1.,15.,8.,0.25,15.,      85P     67
8.,-0.25,-0.635,0.635,0.,0.,0.;                                       85P     68
126,1,1,0,0,1,0,-0.635000000000005,-0.635000000000005,0.,0.,1.,       87P     69
1.,15.,8.,0.25,15.25,8.,0.25,-0.635000000000005,0.,0.,0.,0.;          87P     70
126,1,1,0,0,1,0,9.06014773719376,9.06014773719376,10.16,10.16,        89P     71
1.,1.,15.,7.56698729810778,0.25,15.,8.,0.25,9.06014773719376,         89P     72
10.16,0.,0.,0.;                                                       89P     73
126,1,1,0,0,1,0,12.065,12.065,12.7,12.7,1.,1.,14.75,                  91P     74
7.56698729810778,0.25,15.,7.56698729810778,0.25,12.065,12.7,0.,       91P     75
0.,0.;                                                                91P     76
126,1,1,0,0,1,0,5.08,5.08,19.2201477371938,19.2201477371938,1.,       93P     77
1.,14.75,2.,0.25,14.75,7.56698729810778,0.25,5.08,                    93P     78
19.2201477371938,0.,0.,0.;                                            93P     79
126,2,2,0,0,0,0,1.0471975511966,1.0471975511966,1.0471975511966,      95P     80
2.0943951023932,2.0943951023932,2.0943951023932,1.,                   95P     81
0.86602540378443,1.,14.75,7.56698729810778,-0.25,14.75,               95P     82
7.42264973081037,1.09273919746571D-16,14.75,7.56698729810778,         95P     83
0.25,1.0471975511966,2.0943951023932,0.,0.,0.;                        95P     84
126,2,2,0,0,0,0,-3.14159265358979,-3.14159265358979,                  97P     85
-3.14159265358979,-2.0943951023932,-2.0943951023932,                  97P     86
-2.0943951023932,1.,0.866025403784444,1.,15.,8.,                      97P     87
0.500000000000001,15.,7.71132486540519,0.500000000000001,15.,         97P     88
7.56698729810778,0.25,-3.14159265358979,-2.0943951023932,0.,0.,       97P     89
0.;                                                                   97P     90
126,1,1,0,0,1,0,-9.99999999999999,-9.99999999999999,0.,0.,1.,1.,      99P     91
15.,8.,0.500000000000001,10.,8.,0.500000000000001,                    99P     92
-9.99999999999999,0.,0.,0.,0.;                                        99P     93
126,8,2,0,1,0,0,-3.14159265358979,-3.14159265358979,                 101P     94
-3.14159265358979,-1.5707963267949,-1.5707963267949,0.,0.,           101P     95
1.5707963267949,1.5707963267949,3.14159265358979,                    101P     96
3.14159265358979,3.14159265358979,1.,0.707106781186551,1.,           101P     97
0.707106781186551,1.,0.707106781186551,1.,0.707106781186551,1.,      101P     98
10.,8.,0.500000000000001,10.,8.5,0.5,10.,8.5,                        101P     99
2.14313189850787D-16,10.,8.5,-0.5,10.,8.,-0.5,10.,7.5,-0.5,10.,      101P    100
7.5,2.14313189850787D-16,10.,7.5,0.5,10.,8.,0.500000000000001,       101P    101
-3.14159265358979,3.14159265358979,0.,0.,0.;                         101P    102
126,6,2,0,0,0,0,-7.33038285837618,-7.33038285837618,                 103P    103
-7.33038285837618,-5.93411945678072,-5.93411945678072,               103P    104
-4.53785605518526,-4.53785605518526,-3.14159265358979,               103P    105
-3.14159265358979,-3.14159265358979,1.,0.766044443118976,1.,         103P    106
0.766044443118974,1.,0.766044443118982,1.,15.,7.56698729810778,      103P    107
-0.25,15.,7.7767622059021,-0.613340798452839,15.,                    103P    108
8.17101007166283,-0.469846310392954,15.,8.56525793742357,            103P    109
-0.32635182233307,15.,8.4924038765061,0.0868240888334655,15.,        103P    110
8.41954981558864,0.500000000000001,15.,8.,0.500000000000001,         103P    111
-7.33038285837618,-3.14159265358979,0.,0.,0.;                        103P    112
126,8,2,0,1,0,0,-3.14159265358979,-3.14159265358979,                 105P    113
-3.14159265358979,-1.5707963267949,-1.5707963267949,0.,0.,           105P    114
1.5707963267949,1.5707963267949,3.14159265358979,                    105P    115
3.14159265358979,3.14159265358979,1.,0.707106781186549,1.,           105P    116
0.707106781186549,1.,0.707106781186549,1.,0.707106781186549,1.,      105P    117
10.,8.,1.99999996996302,10.,6.00000003003698,1.99999996996302,       105P    118
10.,6.00000003003698,1.2246468175397D-16,10.,6.00000003003698,       105P    119
-1.99999996996302,10.,8.,-1.99999996996302,10.,9.99999996996302,     105P    120
-1.99999996996302,10.,9.99999996996302,1.2246468175397D-16,10.,      105P    121
9.99999996996302,1.99999996996302,10.,8.,1.99999996996302,           105P    122
-3.14159265358979,3.14159265358979,0.,0.,0.;                         105P    123
126,1,1,0,0,1,0,-5.00000007509246,-5.00000007509246,                 107P    124
6.12323408769851D-17,6.12323408769851D-17,1.,1.,10.,8.,              107P    125
1.99999996996302,-1.22464679914735D-16,8.,1.99999996996302,          107P    126
-5.00000007509246,6.12323408769851D-17,0.,0.,0.;                     107P    127
126,4,2,0,0,0,0,1.5707963267949,1.5707963267949,1.5707963267949,     109P    128
3.14159265358979,3.14159265358979,4.71238898038469,                  109P    129
4.71238898038469,4.71238898038469,1.,0.707106781186547,1.,           109P    130
0.707106781186548,1.,-1.22464679914735D-16,8.,-1.99999996996302,     109P    131
2.,6.00000003003698,-1.99999996996302,2.,6.00000003003698,           109P    132
3.67846954292943D-24,2.,6.00000003003698,1.99999996996302,           109P    133
3.67394039744206D-16,8.,1.99999996996302,1.5707963267949,            109P    134
4.71238898038469,0.,0.,0.;                                           109P    135
126,4,2,0,0,0,0,0.,0.,0.,1.5707963267949,1.5707963267949,            111P    136
3.14159265358979,3.14159265358979,3.14159265358979,1.,               111P    137
0.707106781186549,1.,0.707106781186549,1.,0.,8.,                     111P    138
-1.99999996996302,0.,9.99999996996302,-1.99999996996302,0.,          111P    139
9.99999996996302,1.2246468175397D-16,0.,9.99999996996302,            111P    140
1.99999996996302,0.,8.,1.99999996996302,0.,3.14159265358979,0.,      111P    141
0.,0.;                                                               111P    142
126,1,1,0,0,1,0,-5.07999992370606,-5.07999992370606,                 113P    143
5.07999992370606,5.07999992370606,1.,1.,0.,8.,1.99999996996302,      113P    144
0.,8.,-1.99999996996302,-5.07999992370606,5.07999992370606,0.,       113P    145
0.,0.;                                                               113P    146
126,2,2,0,0,0,0,-4.71238898038469,-4.71238898038469,                 115P    147
-4.71238898038469,-3.14159265358979,-3.14159265358979,               115P    148
-3.14159265358979,1.,0.707106781186548,1.,-3.67394039744206D-16,     115P    149
8.,-2.,-2.,8.,-2.,-2.,8.,2.44929359829471D-16,-4.71238898038469,     115P    150
-3.14159265358979,0.,0.,0.;                                          115P    151
126,2,2,0,0,0,0,-3.14159265358979,-3.14159265358979,                 117P    152
-3.14159265358979,-1.5707963267949,-1.5707963267949,                 117P    153
-1.5707963267949,1.,0.707106781186548,1.,-2.,8.,                     117P    154
2.44929359829471D-16,-2.,8.,2.,1.22464679914735D-16,8.,2.,           117P    155
-3.14159265358979,-1.5707963267949,0.,0.,0.;                         117P    156
126,1,1,0,0,1,0,-4.,-4.,0.,0.,1.,1.,-2.,8.,0.,-2.,0.,0.,-4.,0.,      119P    157
0.,0.,0.;                                                            119P    158
126,8,2,0,1,0,0,-3.14159265358979,-3.14159265358979,                 121P    159
-3.14159265358979,-1.5707963267949,-1.5707963267949,0.,0.,           121P    160
1.5707963267949,1.5707963267949,3.14159265358979,                    121P    161
3.14159265358979,3.14159265358979,1.,0.707106781186548,1.,           121P    162
0.707106781186548,1.,0.707106781186548,1.,0.707106781186548,1.,      121P    163
-2.,0.,2.44929359829471D-16,-2.,0.,2.,1.22464679914735D-16,0.,       121P    164
2.,2.,0.,2.,2.,0.,0.,2.,0.,-2.,1.22464679914735D-16,0.,-2.,-2.,      121P    165
0.,-2.,-2.,0.,-2.44929359829471D-16,-3.14159265358979,               121P    166
3.14159265358979,0.,0.,0.;                                           121P    167
128,1,1,1,1,0,0,1,0,0,-0.636,-0.636,0.636,0.636,                     123P    168
-0.636000000000005,-0.636000000000005,0.636000000000005,             123P    169
0.636000000000005,1.,1.,1.,1.,14.7496062992126,2.,                   123P    170
0.250393700787402,14.7496062992126,2.,-0.250393700787401,            123P    171
15.2503937007874,2.,0.250393700787402,15.2503937007874,2.,           123P    172
-0.250393700787401,-0.636,0.636,-0.636000000000005,                  123P    173
0.636000000000005;                                                   123P    174
128,1,1,1,1,0,0,1,0,0,-0.001,-0.001,1.271,1.271,5.079,5.079,         125P    175
20.321,20.321,1.,1.,1.,1.,15.25,1.9996062992126,                     125P    176
0.250393700787402,15.25,1.9996062992126,-0.250393700787401,          125P    177
15.25,8.0003937007874,0.250393700787402,15.25,8.0003937007874,       125P    178
-0.250393700787401,-0.001,1.271,5.079,20.321;                        125P    179
128,1,1,1,1,0,0,1,0,0,-0.001,-0.001,1.27100000000001,                127P    180
1.27100000000001,5.079,5.079,20.321,20.321,1.,1.,1.,1.,              127P    181
15.2503937007874,1.9996062992126,-0.25,14.7496062992126,             127P    182
1.9996062992126,-0.25,15.2503937007874,8.0003937007874,-0.25,        127P    183
14.7496062992126,8.0003937007874,-0.25,-0.001,1.27100000000001,      127P    184
5.079,20.321;                                                        127P    185
128,1,1,1,1,0,0,1,0,0,-0.636,-0.636,0.636,0.636,-0.001,-0.001,       129P    186
0.636000000000005,0.636000000000005,1.,1.,1.,1.,                     129P    187
14.9996062992126,8.,-0.250393700787401,14.9996062992126,8.,          129P    188
0.250393700787402,15.2503937007874,8.,-0.250393700787401,            129P    189
15.2503937007874,8.,0.250393700787402,-0.636,0.636,-0.001,           129P    190
0.636000000000005;                                                   129P    191
128,1,1,1,1,0,0,1,0,0,-0.001,-0.001,1.27100000000001,                131P    192
1.27100000000001,5.079,5.079,20.321,20.321,1.,1.,1.,1.,              131P    193
14.7496062992126,1.9996062992126,0.25,15.2503937007874,              131P    194
1.9996062992126,0.25,14.7496062992126,8.0003937007874,0.25,          131P    195
15.2503937007874,8.0003937007874,0.25,-0.001,1.27100000000001,       131P    196
5.079,20.321;                                                        131P    197
128,1,1,1,1,0,0,1,0,0,-0.00100000000000033,-0.00100000000000033,     133P    198
1.271,1.271,5.079,5.079,19.2211477371938,19.2211477371938,1.,1.,     133P    199
1.,1.,14.75,1.9996062992126,-0.250393700787401,14.75,                133P    200
1.9996062992126,0.250393700787402,14.75,7.56738099889518,            133P    201
-0.250393700787401,14.75,7.56738099889518,0.250393700787402,         133P    202
-0.00100000000000033,1.271,5.079,19.2211477371938;                   133P    203
128,1,8,1,2,0,1,0,0,1,0.,0.,9.99999999999999,9.99999999999999,       135P    204
-3.14159265358979,-3.14159265358979,-3.14159265358979,               135P    205
-1.5707963267949,-1.5707963267949,0.,0.,1.5707963267949,             135P    206
1.5707963267949,3.14159265358979,3.14159265358979,                   135P    207
3.14159265358979,1.,1.,0.707106781186548,0.707106781186548,1.,       135P    208
1.,0.707106781186548,0.707106781186548,1.,1.,0.707106781186548,      135P    209
0.707106781186548,1.,1.,0.707106781186548,0.707106781186548,1.,      135P    210
1.,15.,8.,0.500000000000001,10.,8.,0.500000000000001,15.,7.5,        135P    211
0.5,10.,7.5,0.5,15.,7.5,2.44929359829471D-16,10.,7.5,                135P    212
2.44929359829471D-16,15.,7.5,-0.5,10.,7.5,-0.5,15.,8.,-0.5,10.,      135P    213
8.,-0.5,15.,8.5,-0.5,10.,8.5,-0.5,15.,8.5,2.44929359829471D-16,      135P    214
10.,8.5,2.44929359829471D-16,15.,8.5,0.5,10.,8.5,0.5,15.,8.,         135P    215
0.500000000000001,10.,8.,0.500000000000001,0.,9.99999999999999,      135P    216
-3.14159265358979,3.14159265358979;                                  135P    217
128,1,1,1,1,0,0,1,0,0,-1.271,-1.271,1.55888562807021,                137P    218
1.55888562807021,-1.10085226280624,-1.10085226280624,                137P    219
1.43675516105587,1.43675516105587,1.,1.,1.,1.,15.,                   137P    220
7.56659359732038,0.500393700787402,15.,7.56659359732038,             137P    221
-0.61373449924024,15.,8.56565163821097,0.500393700787402,15.,        137P    222
8.56565163821097,-0.61373449924024,-1.271,1.55888562807021,          137P    223
-1.10085226280624,1.43675516105587;                                  137P    224
128,1,8,1,2,0,1,0,0,1,-6.12323408769851D-17,                         139P    225
-6.12323408769851D-17,5.00000007509246,5.00000007509246,             139P    226
-3.14159265358979,-3.14159265358979,-3.14159265358979,               139P    227
-1.5707963267949,-1.5707963267949,0.,0.,1.5707963267949,             139P    228
1.5707963267949,3.14159265358979,3.14159265358979,                   139P    229
3.14159265358979,1.,1.,0.707106781186548,0.707106781186548,1.,       139P    230
1.,0.707106781186548,0.707106781186548,1.,1.,0.707106781186548,      139P    231
0.707106781186548,1.,1.,0.707106781186548,0.707106781186548,1.,      139P    232
1.,10.,8.,1.99999996996302,-1.22464679914735D-16,8.,                 139P    233
1.99999996996302,10.,6.00000003003698,1.99999996996302,              139P    234
-1.22464679914735D-16,6.00000003003698,1.99999996996302,10.,         139P    235
6.00000003003698,2.44929359829471D-16,-1.22464679914735D-16,         139P    236
6.00000003003698,2.44929359829471D-16,10.,6.00000003003698,          139P    237
-1.99999996996302,-1.22464679914735D-16,6.00000003003698,            139P    238
-1.99999996996302,10.,8.,-1.99999996996302,                          139P    239
-1.22464679914735D-16,8.,-1.99999996996302,10.,9.99999996996302,     139P    240
-1.99999996996302,-1.22464679914735D-16,9.99999996996302,            139P    241
-1.99999996996302,10.,9.99999996996302,2.44929359829471D-16,         139P    242
-1.22464679914735D-16,9.99999996996302,2.44929359829471D-16,10.,     139P    243
9.99999996996302,1.99999996996302,-1.22464679914735D-16,             139P    244
9.99999996996302,1.99999996996302,10.,8.,1.99999996996302,           139P    245
-1.22464679914735D-16,8.,1.99999996996302,-6.12323408769851D-17,     139P    246
5.00000007509246,-3.14159265358979,3.14159265358979;                 139P    247
128,1,1,1,1,0,0,1,0,0,-5.08099992370606,-5.08099992370606,           141P    248
5.08099992370606,5.08099992370606,-5.08099992370606,                 141P    249
-5.08099992370606,5.08099992370606,5.08099992370606,1.,1.,1.,1.,     141P    250
10.,5.99960632924958,2.00039367075042,10.,5.99960632924958,          141P    251
-2.00039367075042,10.,10.0003936707504,2.00039367075042,10.,         141P    252
10.0003936707504,-2.00039367075042,-5.08099992370606,                141P    253
5.08099992370606,-5.08099992370606,5.08099992370606;                 141P    254
128,1,1,1,1,0,0,1,0,0,-5.08099992370606,-5.08099992370606,           143P    255
5.08099992370606,5.08099992370606,-0.001,-0.001,                     143P    256
5.08099992370606,5.08099992370606,1.,1.,1.,1.,0.,                    143P    257
7.9996062992126,-2.00039367075042,0.,7.9996062992126,                143P    258
2.00039367075042,0.,10.0003936707504,-2.00039367075042,0.,           143P    259
10.0003936707504,2.00039367075042,-5.08099992370606,                 143P    260
5.08099992370606,-0.001,5.08099992370606;                            143P    261
128,1,1,1,1,0,0,1,0,0,-5.081,-5.081,0.00100000000000033,             145P    262
0.00100000000000033,-5.081,-5.081,5.081,5.081,1.,1.,1.,1.,           145P    263
-2.0003937007874,8.,2.0003937007874,0.000393700787401697,8.,         145P    264
2.0003937007874,-2.0003937007874,8.,-2.0003937007874,                145P    265
0.000393700787401706,8.,-2.0003937007874,-5.081,                     145P    266
0.00100000000000033,-5.081,5.081;                                    145P    267
128,1,8,1,2,0,1,0,0,1,0.,0.,4.,4.,-3.14159265358979,                 147P    268
-3.14159265358979,-3.14159265358979,-1.5707963267949,                147P    269
-1.5707963267949,0.,0.,1.5707963267949,1.5707963267949,              147P    270
3.14159265358979,3.14159265358979,3.14159265358979,1.,1.,            147P    271
0.707106781186548,0.707106781186548,1.,1.,0.707106781186548,         147P    272
0.707106781186548,1.,1.,0.707106781186548,0.707106781186548,1.,      147P    273
1.,0.707106781186548,0.707106781186548,1.,1.,-2.,8.,0.,-2.,0.,       147P    274
0.,-2.,8.,2.,-2.,0.,2.,0.,8.,2.,0.,0.,2.,2.,8.,2.,2.,0.,2.,2.,       147P    275
8.,0.,2.,0.,0.,2.,8.,-2.,2.,0.,-2.,0.,8.,-2.,0.,0.,-2.,-2.,8.,       147P    276
-2.,-2.,0.,-2.,-2.,8.,0.,-2.,0.,0.,0.,4.,-3.14159265358979,          147P    277
3.14159265358979;                                                    147P    278
128,1,1,1,1,0,0,1,0,0,-5.081,-5.081,5.081,5.081,-5.081,-5.081,       149P    279
5.081,5.081,1.,1.,1.,1.,2.0003937007874,0.,2.0003937007874,          149P    280
-2.0003937007874,0.,2.0003937007874,2.0003937007874,0.,              149P    281
-2.0003937007874,-2.0003937007874,0.,-2.0003937007874,-5.081,        149P    282
5.081,-5.081,5.081;                                                  149P    283
502,19,15.25,2.,-0.25,14.75,2.,-0.25,15.25,2.,0.25,14.75,2.,         151P    284
0.25,15.25,8.,-0.25,15.25,8.,0.25,14.75,7.56698729810778,-0.25,      151P    285
15.,7.56698729810778,-0.25,15.,8.,-0.25,15.,8.,0.25,15.,             151P    286
7.56698729810778,0.25,14.75,7.56698729810778,0.25,15.,8.,            151P    287
0.500000000000001,10.,8.,0.500000000000001,10.,8.,                   151P    288
1.99999996996302,0.,8.,1.99999996996302,0.,8.,-1.99999996996302,     151P    289
-2.,8.,0.,-2.,0.,2.44929359829471D-16;                               151P    290
504,30,63,151,1,151,2,65,151,3,151,1,67,151,4,151,3,69,151,2,        153P    291
151,4,71,151,1,151,5,73,151,6,151,5,75,151,3,151,6,77,151,2,151,     153P    292
7,79,151,8,151,7,81,151,9,151,8,83,151,5,151,9,85,151,10,151,9,      153P    293
87,151,10,151,6,89,151,11,151,10,91,151,12,151,11,93,151,4,151,      153P    294
12,95,151,7,151,12,97,151,13,151,11,99,151,13,151,14,101,151,14,     153P    295
151,14,103,151,8,151,13,105,151,15,151,15,107,151,15,151,16,109,     153P    296
151,17,151,16,111,151,17,151,16,113,151,16,151,17,115,151,17,        153P    297
151,18,117,151,18,151,16,119,151,18,151,19,121,151,19,151,19;        153P    298
406,1,5HBody1;                                                       155P    299
314,62.7450980392157,62.7450980392157,62.7450980392157,13HSteel      157P    300
- Satin;                                                             157P    301
S      1G      3D    158P    301                                        T      1
